PathFileType	4	(X/Y/Z)	Patient4_TMGait_0pt5_02_left_39.trc.trc
DataRate	CameraRate	NumFrames	NumMarkers	Units	OrigDataRate	OrigDataStartFrame	OrigNumFrames
77.777777777778	77.777777777778	5	33	mm	77.777777777778	53	       141
Frame#	Time	Sacral			L.Shoulder			Chest			R.Shoulder			Neck			R.ASIS			L.ASIS			R.Thigh.Superior			R.Thigh.Lateral			R.Thigh.Inferior			R.Patella			L.Thigh.Superior			L.Thigh.Lateral			L.Thigh.Inferior			L.Patella			L.Shank.Superior			L.Shank.Lateral			L.Shank.Inferior			R.Shank.Superior			R.Shank.Lateral			R.Shank.Inferior			R.Heel			R.Midfoot.Superior			R.Midfoot.Lateral			R.Toe			L.Heel			L.Midfoot.Lateral			L.Midfoot.Superior			L.Toe			L.Elbow			L.Wrist			R.Elbow			R.Wrist			
		X1	Y1	Z1	X2	Y2	Z2	X3	Y3	Z3	X4	Y4	Z4	X5	Y5	Z5	X6	Y6	Z6	X7	Y7	Z7	X8	Y8	Z8	X9	Y9	Z9	X10	Y10	Z10	X11	Y11	Z11	X12	Y12	Z12	X13	Y13	Z13	X14	Y14	Z14	X15	Y15	Z15	X16	Y16	Z16	X17	Y17	Z17	X18	Y18	Z18	X19	Y19	Z19	X20	Y20	Z20	X21	Y21	Z21	X22	Y22	Z22	X23	Y23	Z23	X24	Y24	Z24	X25	Y25	Z25	X26	Y26	Z26	X27	Y27	Z27	X28	Y28	Z28	X29	Y29	Z29	X30	Y30	Z30	X31	Y31	Z31	X32	Y32	Z32	X33	Y33	Z33	

53	50.948571428571	715.703880987354	1014.845385749364	429.740327415269	917.288234110547	1426.826007311298	235.651677994420	1008.822116356927	1361.353828616199	405.080597549024	920.334748445869	1447.624110936517	571.385732998393	914.856498002491	1496.212344462413	382.621636106781	937.329644938745	950.916998005047	555.616489053035	934.940083927975	959.118896596873	281.619216138324	1018.095733332492	778.455335623538	533.202092055855	975.291639464563	658.339853511328	606.469082905081	1067.786363206008	616.542706135948	531.500310520058	1083.854629588196	501.933923120156	554.962834490973	982.709899827756	753.467581797333	309.042649668382	896.178998273479	637.956060258514	253.597398427310	982.756172640155	561.814508452242	316.705674793190	983.730143667895	491.588583755572	327.218006265003	957.422076913471	419.531266344736	320.567465163270	868.556632244916	303.770347780596	270.657277701683	920.802337605362	194.816488128129	344.923025872344	1004.701272196521	429.473802232679	559.144325726215	880.300977300616	395.366100734818	616.535992746611	861.653186438716	288.075372008679	566.699118872308	657.527216111887	232.482445199554	534.983864417096	825.033485308637	171.647421759326	576.086788529091	715.098673453238	172.057579470549	609.359921865262	888.746738155889	58.816010212660	604.374601038596	792.818144398181	38.283684327374	388.006164645570	869.918863738580	34.697242817779	309.578038623537	951.327847334412	96.628094104303	338.464359780594	1081.127458960437	46.369842158713	317.181590946213	950.565931955517	1075.614322035889	112.511432582160	1096.575981248970	858.850383505153	109.736710034155	867.740934338853	1106.655346044081	698.470719571097	962.206483000470	862.184213165989	694.727177462769	
54	50.961428571429	714.734789888519	1015.360245618972	428.793210337323	918.154636886366	1427.065000149504	234.946216166412	1008.302605129711	1361.864262616734	405.173170612880	918.500505008260	1448.254375146688	570.711515665665	914.576621969470	1496.665196364513	381.811827663136	936.065085352231	952.122579329195	555.339638505445	934.424143338334	959.473557139949	281.414515638062	1019.008108563696	782.114566273966	532.385115791389	979.015935681501	661.474567420205	606.057042112602	1071.729195108273	621.167027129979	530.641917021434	1090.414534195916	507.084761482089	554.182554175811	980.556942929095	752.778598833601	309.622047136661	893.268126918434	637.983920487925	253.833712327380	978.604624443926	561.117546648444	317.578400794113	978.822405232208	491.038904786801	328.240615513672	952.413553073252	419.253937206993	321.286152088032	863.456729014069	303.816356236621	270.899942354572	914.896705155415	194.655102440751	345.324359697555	1012.963650186396	432.886806831697	559.058566450085	889.918359993297	395.636549005181	617.388112770317	873.656484090640	287.772505293472	567.838934344540	670.882094755306	226.827946608573	537.723481804129	840.085733273529	170.290031475504	577.551020242723	730.497302992575	167.954154204064	611.754755816880	906.828123335796	59.263013935843	605.458966401856	786.300622464564	38.291052689181	387.999648848202	863.449006996130	34.721511458878	309.611801159686	944.885374180175	96.567739689804	338.584946761595	1074.671706186577	46.242301584647	317.181029306324	957.547268876381	1077.008975201275	111.267520856279	1111.574249944606	865.806914571024	108.214360599344	855.326562857194	1109.562241450351	698.339516999389	934.187033183611	859.209289798292	699.739348667114	
55	50.974285714286	713.814948924138	1015.877295070337	427.898158771524	919.123796450737	1427.321993389072	234.442089008077	1007.875501539328	1362.324261774871	405.441303435217	916.763440082840	1448.827418723136	570.216344540575	914.348995650858	1497.086812648957	381.224730414533	934.752153202359	953.225516593906	555.196482114633	933.996767215663	959.798120926664	281.362858552826	1019.599219010968	785.453866380885	531.706141508996	982.116692358700	664.366596673176	605.698338484489	1074.911900786005	625.366239993861	529.832074944222	1096.051199458281	512.035301979984	553.459107205793	978.390257955100	752.053305723743	310.422691310456	890.387475105512	638.000995578871	254.109520585916	974.373806141418	560.412587026691	318.574520984395	973.810666052066	490.488616100434	329.352816175527	947.340447234253	418.975415050775	322.066481921901	858.364342852820	303.830622448697	271.143452697040	908.963086962413	194.486556497003	345.774054306812	1020.710677385692	435.965933840608	559.036091276361	899.428509480079	394.898291778357	618.448020231451	886.143551104004	286.437610810817	569.160574953446	685.221874473777	219.072170221873	540.871680591039	856.326134869748	167.780147592247	579.208080242722	747.226522376240	162.112926583636	614.460351189232	926.690571955051	58.989890651230	606.635726601272	779.778480274536	38.289668595045	388.008707639819	856.972770671786	34.740297534834	309.655801257205	938.436129587547	96.503064263832	338.723069532044	1068.214752245956	46.112839606132	317.192555690942	963.842059926452	1078.484900186077	110.151348748934	1125.989625075709	873.341088725894	106.945891780030	843.007496026652	1112.767779821198	698.147805696417	906.658806302999	857.968617665969	704.396324842576	
56	50.987142857143	712.936730237352	1016.373910869820	427.041245234624	920.187650767448	1427.559778711171	234.134077528168	1007.535808795035	1362.707172418821	405.881989436523	915.123338113912	1449.326252478423	569.894803473963	914.184902127447	1497.450045459948	380.850879406674	933.390499403675	954.192629122133	555.191054825346	933.661270687406	960.079466656415	281.460011242577	1019.856409319124	788.401432302584	531.163654196848	984.561217795445	666.937533437044	605.411219122662	1077.300065816496	629.036311273702	529.091061412216	1100.702440829533	516.688057780967	552.823014322315	976.237184418939	751.294324493086	311.409172731769	887.557204060547	638.001113217900	254.399914892240	970.104423766297	559.696634874759	319.648564013259	968.745048297701	489.931794402323	330.510790148511	942.240515553328	418.683076665153	322.878372588386	853.297629390934	303.809267308377	271.373272433805	903.009950638200	194.303386656191	346.258292179725	1027.884845182174	438.662868966744	559.092289149192	908.818524690155	393.179894010058	619.691998346744	899.096256304364	284.166305249592	570.634993590226	700.643833219374	209.420839805066	544.320905434920	873.721479829161	164.294304097749	581.014064433539	765.301881782415	154.757419102322	617.387164028431	948.205305937220	58.188507192591	607.874427833155	773.256596513106	38.279135574758	388.030054700038	850.491670115712	34.753108977771	309.705875174204	931.981103860058	96.434131397662	338.874417156343	1061.757808384304	45.982841272485	317.214576678173	969.481546810285	1079.978175332373	109.129677963191	1139.782752765717	881.388696352422	105.920668902217	830.865181655983	1116.232359147472	697.881501067972	879.859353683737	858.301048848671	708.652117430316	
57	51.000000000000	712.096317535357	1016.829807400560	426.213578295185	921.334748655333	1427.746036571231	234.015802357970	1007.277659688433	1362.990964102701	406.489101431740	913.582727402549	1449.737910834444	569.738418333750	914.095797430682	1497.731850550573	380.678669675279	931.984995418175	954.997162172272	555.326654581910	933.415031620983	960.304581605659	281.697943679102	1019.761060426608	790.885539838248	530.764229442161	986.300034710046	669.114485710748	605.217241155408	1078.848781685190	632.080878050287	528.448927579211	1104.303900571177	520.954644154253	552.305605285162	974.124624350182	750.505339225154	312.546461381112	884.798671602025	637.977414080623	254.687534925934	965.840627785807	558.966883279443	320.761410249545	963.679555574438	489.361422872521	331.677592655496	937.154039689683	418.364187584386	323.696902163567	848.273922925768	303.751020961128	271.581704494067	897.045810259327	194.098533961624	346.765122887697	1034.422682103677	440.949261419135	559.245237972450	918.075389691816	390.540790954265	621.097265946642	912.492639960492	281.093251561426	572.228282543269	717.249716457358	198.127005935746	547.952411752569	892.235324554958	160.053751773556	582.914985233977	784.741682348947	146.156813559491	620.435053010247	971.236059109819	57.113820677890	609.130177545434	766.739394018943	38.259508173123	388.059591085271	844.007081572944	34.759792696782	309.758048101267	925.521029371942	96.361676070650	339.034823091641	1055.301287872603	45.854455525648	317.245287376741	974.516767380932	1081.435560053792	108.178543148189	1152.916055525953	889.880170680264	105.132001321652	818.988280632426	1119.917003265179	697.540056581801	853.991943485044	860.014085700885	712.488455183253	
